{
  "accessors": [
    {
      "bufferView": 2,
      "componentType": 5126,
      "count": 40401,
      "max": [
        158.17500305175781,
        227.91400146484375,
        17.99839973449707
      ],
      "min": [
        -185.26600646972656,
        -223.84500122070312,
        -48.124801635742188
      ],
      "type": "VEC3"
    },
    {
      "bufferView": 2,
      "byteOffset": 484812,
      "componentType": 5126,
      "count": 40401,
      "max": [
        1,
        0.9999997615814209,
        1
      ],
      "min": [
        -1,
        -0.99999463558197021,
        -0.36960422992706299
      ],
      "type": "VEC3"
    },
    {
      "bufferView": 3,
      "componentType": 5126,
      "count": 40401,
      "max": [
        1,
        0.99014866352081299,
        0.99999940395355225,
        1
      ],
      "min": [
        -0.28815376758575439,
        -0.86217492818832397,
        -0.99999940395355225,
        1
      ],
      "type": "VEC4"
    },
    {
      "bufferView": 1,
      "componentType": 5126,
      "count": 40401,
      "max": [
        6.7760601043701172,
        11.92140007019043
      ],
      "min": [
        0,
        0.84171801805496216
      ],
      "type": "VEC2"
    },
    {
      "bufferView": 0,
      "componentType": 5125,
      "count": 240000,
      "max": [
        40400
      ],
      "min": [
        0
      ],
      "type": "SCALAR"
    },
    {
      "bufferView": 2,
      "byteOffset": 969624,
      "componentType": 5126,
      "count": 10561,
      "max": [
        145.56900024414062,
        213.26400756835938,
        16.99839973449707
      ],
      "min": [
        -173.45599365234375,
        -208.54100036621094,
        -142.90699768066406
      ],
      "type": "VEC3"
    },
    {
      "bufferView": 2,
      "byteOffset": 1096356,
      "componentType": 5126,
      "count": 10561,
      "max": [
        1,
        1,
        1
      ],
      "min": [
        -1,
        -1,
        -1
      ],
      "type": "VEC3"
    },
    {
      "bufferView": 3,
      "byteOffset": 646416,
      "componentType": 5126,
      "count": 10561,
      "max": [
        0.70869964361190796,
        0.70801031589508057,
        0.7718498706817627,
        1
      ],
      "min": [
        -0.70880866050720215,
        -1,
        -1,
        -1
      ],
      "type": "VEC4"
    },
    {
      "bufferView": 1,
      "byteOffset": 323208,
      "componentType": 5126,
      "count": 10561,
      "max": [
        1.3206599950790405,
        2.3015999794006348
      ],
      "min": [
        -1.3144099712371826,
        -0.27534300088882446
      ],
      "type": "VEC2"
    },
    {
      "bufferView": 0,
      "byteOffset": 960000,
      "componentType": 5125,
      "count": 54144,
      "max": [
        10560
      ],
      "min": [
        0
      ],
      "type": "SCALAR"
    }
  ],
  "asset": {
    "extras": {
      "author": "Silver10211 (https://sketchfab.com/Silver10211)",
      "license": "CC-BY-4.0 (http://creativecommons.org/licenses/by/4.0/)",
      "source": "https://sketchfab.com/3d-models/table-a28843f21d784fe98cc220ef0d1df478",
      "title": "Table"
    },
    "generator": "Sketchfab-6.93.1",
    "version": "2.0"
  },
  "bufferViews": [
    {
      "buffer": 0,
      "byteLength": 1176576,
      "byteOffset": 0,
      "name": "floatBufferViews",
      "target": 34963
    },
    {
      "buffer": 0,
      "byteLength": 407696,
      "byteOffset": 1176576,
      "byteStride": 8,
      "name": "floatBufferViews",
      "target": 34962
    },
    {
      "buffer": 0,
      "byteLength": 1223088,
      "byteOffset": 1584272,
      "byteStride": 12,
      "name": "floatBufferViews",
      "target": 34962
    },
    {
      "buffer": 0,
      "byteLength": 815392,
      "byteOffset": 2807360,
      "byteStride": 16,
      "name": "floatBufferViews",
      "target": 34962
    }
  ],
  "buffers": [
    {
      "byteLength": 3622752,
      "uri": "scene.bin"
    }
  ],
  "images": [
    {
      "uri": "textures/New_Material_baseColor.jpeg"
    },
    {
      "uri": "textures/New_Material__env_2_spec_baseColor.png"
    }
  ],
  "materials": [
    {
      "doubleSided": true,
      "emissiveFactor": [
        0,
        0,
        0
      ],
      "name": "New_Material",
      "pbrMetallicRoughness": {
        "baseColorFactor": [
          1,
          1,
          1,
          1
        ],
        "baseColorTexture": {
          "index": 0,
          "texCoord": 0
        },
        "metallicFactor": 0,
        "roughnessFactor": 0.59999999999999998
      }
    },
    {
      "doubleSided": true,
      "emissiveFactor": [
        0,
        0,
        0
      ],
      "name": "New_Material__env_2_spec",
      "pbrMetallicRoughness": {
        "baseColorFactor": [
          1,
          1,
          1,
          1
        ],
        "baseColorTexture": {
          "index": 1,
          "texCoord": 0
        },
        "metallicFactor": 0,
        "roughnessFactor": 0.59999999999999998
      }
    }
  ],
  "meshes": [
    {
      "primitives": [
        {
          "attributes": {
            "NORMAL": 1,
            "POSITION": 0,
            "TANGENT": 2,
            "TEXCOORD_0": 3
          },
          "indices": 4,
          "material": 0,
          "mode": 4
        }
      ]
    },
    {
      "primitives": [
        {
          "attributes": {
            "NORMAL": 6,
            "POSITION": 5,
            "TANGENT": 7,
            "TEXCOORD_0": 8
          },
          "indices": 9,
          "material": 1,
          "mode": 4
        }
      ]
    }
  ],
  "nodes": [
    {
      "children": [
        1
      ],
      "name": "RootNode (gltf orientation matrix)",
      "rotation": [
        -0.70710678118654746,
        -0,
        -0,
        0.70710678118654757
      ]
    },
    {
      "children": [
        2
      ],
      "name": "RootNode (model correction matrix)"
    },
    {
      "children": [
        3,
        4
      ],
      "name": "table.obj.cleaner.materialmerger.gles"
    },
    {
      "mesh": 0,
      "name": ""
    },
    {
      "mesh": 1,
      "name": ""
    }
  ],
  "samplers": [
    {
      "magFilter": 9729,
      "minFilter": 9987,
      "wrapS": 10497,
      "wrapT": 10497
    }
  ],
  "scene": 0,
  "scenes": [
    {
      "name": "OSG_Scene",
      "nodes": [
        0
      ]
    }
  ],
  "textures": [
    {
      "sampler": 0,
      "source": 0
    },
    {
      "sampler": 0,
      "source": 1
    }
  ]
}

