{
  "accessors": [
    {
      "bufferView": 1,
      "componentType": 5126,
      "count": 797,
      "max": [
        4.1384201049804688,
        4.6958699226379395,
        2.14805006980896
      ],
      "min": [
        -4.1384201049804688,
        1.4050999879837036,
        -2.6538200378417969
      ],
      "type": "VEC3"
    },
    {
      "bufferView": 1,
      "byteOffset": 9564,
      "componentType": 5126,
      "count": 797,
      "max": [
        1,
        1,
        0.99999964237213135
      ],
      "min": [
        -1,
        -1,
        -0.96179825067520142
      ],
      "type": "VEC3"
    },
    {
      "bufferView": 0,
      "componentType": 5125,
      "count": 1620,
      "max": [
        796
      ],
      "min": [
        0
      ],
      "type": "SCALAR"
    },
    {
      "bufferView": 1,
      "byteOffset": 19128,
      "componentType": 5126,
      "count": 1320,
      "max": [
        4.3717198371887207,
        3.3522200584411621,
        1.9280999898910522
      ],
      "min": [
        -4.3717198371887207,
        0.0002899999963119626,
        -2.3542699813842773
      ],
      "type": "VEC3"
    },
    {
      "bufferView": 1,
      "byteOffset": 34968,
      "componentType": 5126,
      "count": 1320,
      "max": [
        1,
        1,
        0.98688226938247681
      ],
      "min": [
        -1,
        -1,
        -0.9849092960357666
      ],
      "type": "VEC3"
    },
    {
      "bufferView": 0,
      "byteOffset": 6480,
      "componentType": 5125,
      "count": 2040,
      "max": [
        1319
      ],
      "min": [
        0
      ],
      "type": "SCALAR"
    }
  ],
  "asset": {
    "extras": {
      "author": "Algirdas Lalys (https://sketchfab.com/alalys)",
      "license": "CC-BY-4.0 (http://creativecommons.org/licenses/by/4.0/)",
      "source": "https://sketchfab.com/3d-models/lounge-sofa-6a48442eba954fdaaa85eb85027e852c",
      "title": "Lounge Sofa"
    },
    "generator": "Sketchfab-6.30.0",
    "version": "2.0"
  },
  "bufferViews": [
    {
      "buffer": 0,
      "byteLength": 14640,
      "byteOffset": 0,
      "name": "floatBufferViews",
      "target": 34963
    },
    {
      "buffer": 0,
      "byteLength": 50808,
      "byteOffset": 14640,
      "byteStride": 12,
      "name": "floatBufferViews",
      "target": 34962
    }
  ],
  "buffers": [
    {
      "byteLength": 65448,
      "uri": "scene.bin"
    }
  ],
  "materials": [
    {
      "doubleSided": true,
      "emissiveFactor": [
        0,
        0,
        0
      ],
      "name": "Sofa2_Material",
      "pbrMetallicRoughness": {
        "baseColorFactor": [
          0.080219835042953491,
          0.12743771076202393,
          0.18447501957416534,
          1
        ],
        "metallicFactor": 0,
        "roughnessFactor": 0.59999999999999998
      }
    },
    {
      "doubleSided": true,
      "emissiveFactor": [
        0,
        0,
        0
      ],
      "name": "Sofa2_Details",
      "pbrMetallicRoughness": {
        "baseColorFactor": [
          0.72189527750015259,
          0.80000007152557373,
          0.80000007152557373,
          1
        ],
        "metallicFactor": 0,
        "roughnessFactor": 0.59999999999999998
      }
    }
  ],
  "meshes": [
    {
      "name": "Sofa2_0",
      "primitives": [
        {
          "attributes": {
            "NORMAL": 1,
            "POSITION": 0
          },
          "indices": 2,
          "material": 0,
          "mode": 4
        }
      ]
    },
    {
      "name": "Sofa2_1",
      "primitives": [
        {
          "attributes": {
            "NORMAL": 4,
            "POSITION": 3
          },
          "indices": 5,
          "material": 1,
          "mode": 4
        }
      ]
    }
  ],
  "nodes": [
    {
      "children": [
        1
      ],
      "name": "RootNode (gltf orientation matrix)",
      "rotation": [
        -0.70710678118654746,
        -0,
        -0,
        0.70710678118654757
      ]
    },
    {
      "children": [
        2
      ],
      "name": "RootNode (model correction matrix)"
    },
    {
      "children": [
        3
      ],
      "name": "Root"
    },
    {
      "children": [
        4,
        5
      ],
      "matrix": [
        0.23389000000000001,
        0,
        0,
        0,
        0,
        0,
        0.23389000000000001,
        0,
        0,
        -0.23389000000000001,
        0,
        0,
        0,
        0,
        0,
        1
      ],
      "name": "Sofa2"
    },
    {
      "mesh": 0,
      "name": "Sofa2_0"
    },
    {
      "mesh": 1,
      "name": "Sofa2_1"
    }
  ],
  "scene": 0,
  "scenes": [
    {
      "name": "OSG_Scene",
      "nodes": [
        0
      ]
    }
  ]
}

